<svg viewBox="0 0 80 80" xmlns="http://www.w3.org/2000/svg">
  <path fill="white" d="M40,1.5A38.5,38.5,0,1,1,1.5,40,38.544,38.544,0,0,1,40,1.5M40,0A40,40,0,1,0,80,40,40,40,0,0,0,40,0Z"/>
  <g>
    <path fill="white" d="M54,29.414V32.58L47.717,26.3A1.014,1.014,0,0,0,47,26H30a5.01,5.01,0,0,0-4,2V25a3,3,0,0,1,3-3H46.586a1,1,0,0,1,.707.293l6.414,6.414A1,1,0,0,1,54,29.414Z"/>
    <path fill="white" d="M54,24.414V27.58L47.717,21.3A1.014,1.014,0,0,0,47,21H29a3.071,3.071,0,0,0-2.943,1.642.029.029,0,0,1-.057-.01V20a3,3,0,0,1,3-3H46.586a1,1,0,0,1,.707.293l6.414,6.414A1,1,0,0,1,54,24.414Z"/>
    <path fill="white" d="M54,34H48a1,1,0,0,1-1-1V27Z"/>
    <path fill="white" d="M54,35V46H49a2.006,2.006,0,0,0-2,2v.74a.265.265,0,0,1-.26.26H33.26a.265.265,0,0,1-.26-.26V48a2.006,2.006,0,0,0-2-2H26V31a4.012,4.012,0,0,1,4-4H46v7a1,1,0,0,0,1,1Z"/>
    <path fill="white" d="M58,47.754V58.492A1.513,1.513,0,0,1,56.492,60H23.508A1.513,1.513,0,0,1,22,58.492V48a1,1,0,0,1,1-1h8a1,1,0,0,1,1,1v.741A1.263,1.263,0,0,0,33.259,50H46.741A1.263,1.263,0,0,0,48,48.741V48a1,1,0,0,1,1-1h8.246A.755.755,0,0,1,58,47.754Z"/>
  </g>
</svg>
