<svg id="Layer_2" data-name="Layer 2" xmlns="http://www.w3.org/2000/svg" viewBox="0 0 32 32"><defs><style>.cls-1{fill:#00a389;}.cls-2{fill:#fff;}</style></defs><title>Artboard 1</title><path class="cls-1" d="M5.383,31.5A4.9,4.9,0,0,1,.5,26.6V5.4A4.966,4.966,0,0,1,5.383.5H26.614A4.964,4.964,0,0,1,31.5,5.4V26.7a4.815,4.815,0,0,1-4.884,4.8H5.383Z"/><path class="cls-2" d="M26.614,32H5.383A5.4,5.4,0,0,1,0,26.6V5.4A5.468,5.468,0,0,1,5.364,0h21.25A5.468,5.468,0,0,1,32,5.38V26.7A5.286,5.286,0,0,1,26.614,32ZM5.383,1A4.468,4.468,0,0,0,1,5.4V26.6A4.4,4.4,0,0,0,5.383,31H26.614A4.3,4.3,0,0,0,31,26.7V5.4A4.467,4.467,0,0,0,26.614,1Z"/><path class="cls-2" d="M23.17,9H9.83A1.831,1.831,0,0,0,8,10.83V22.17A1.831,1.831,0,0,0,9.83,24h8.22a5.863,5.863,0,0,1-1.22-1h-7A.828.828,0,0,1,9,22.17V10.83A.828.828,0,0,1,9.83,10H23.17a.828.828,0,0,1,.83.83V12.5a5.964,5.964,0,0,1,1,.53v-2.2A1.831,1.831,0,0,0,23.17,9Z"/><path class="cls-2" d="M28.71,25.29l-3.12-3.12A5.488,5.488,0,0,0,25,14.26a4.636,4.636,0,0,0-1-.65A5.4,5.4,0,0,0,21.5,13a5.5,5.5,0,1,0,2.49,10.4l.25.25,3.05,3.06a1.014,1.014,0,0,0,1.42,0A1.008,1.008,0,0,0,28.71,25.29ZM24,20.94A3.441,3.441,0,0,1,21.5,22a3.5,3.5,0,0,1,0-7A3.493,3.493,0,0,1,24,20.94Z"/><path class="cls-2" d="M20.17,6H6.83A1.831,1.831,0,0,0,5,7.83V19.17A1.831,1.831,0,0,0,6.83,21H7V20H6.83A.828.828,0,0,1,6,19.17V7.83A.828.828,0,0,1,6.83,7H20.17a.828.828,0,0,1,.83.83V8h1V7.83A1.831,1.831,0,0,0,20.17,6Z"/></svg>