<svg id="Layer_1" data-name="Layer 1" xmlns="http://www.w3.org/2000/svg" viewBox="0 0 32 32"><defs><style>.cls-1{fill:#7e929f;}.cls-2{fill:#fff;}.cls-3{fill:#5d6f77;fill-rule:evenodd;}</style></defs><title>mime_contentless_object</title><path class="cls-1" d="M7,31.5A3.5,3.5,0,0,1,3.5,28V4A3.5,3.5,0,0,1,7,.5H22.21L28.5,6.79V28A3.5,3.5,0,0,1,25,31.5Z"/><path class="cls-2" d="M22,1l6,6V28a3,3,0,0,1-3,3H7a3,3,0,0,1-3-3V4A3,3,0,0,1,7,1H22m.41-1H7A4,4,0,0,0,3,4V28a4,4,0,0,0,4,4H25a4,4,0,0,0,4-4V6.59l-.29-.3-6-6L22.41,0Z"/><polygon class="cls-3" points="22 1 22 7 28 7 22 1"/><path class="cls-2" d="M23.5,29h-.19a.5.5,0,0,1,0-1h.19a1.51,1.51,0,0,0,1.31-.76.49.49,0,0,1,.68-.19.5.5,0,0,1,.19.68A2.53,2.53,0,0,1,23.5,29Zm-3.79,0h-2.3a.5.5,0,1,1,0-1h2.3a.5.5,0,0,1,0,1Zm-5.9,0h-2.3a.5.5,0,1,1,0-1h2.3a.5.5,0,1,1,0,1Zm-5.89-.08-.14,0A2.5,2.5,0,0,1,6,26.82a.5.5,0,1,1,1-.13,1.51,1.51,0,0,0,1.06,1.25.5.5,0,0,1,.33.62A.49.49,0,0,1,7.92,28.92ZM25.5,24.43a.5.5,0,0,1-.5-.5v-2.3a.5.5,0,1,1,1,0v2.3A.5.5,0,0,1,25.5,24.43Zm-19-.77a.5.5,0,0,1-.5-.5v-2.3a.5.5,0,0,1,1,0v2.3A.5.5,0,0,1,6.5,23.66Zm19-5.13A.5.5,0,0,1,25,18v-2.3a.5.5,0,0,1,1,0V18A.5.5,0,0,1,25.5,18.53Zm-19-.77a.5.5,0,0,1-.5-.5V15a.5.5,0,0,1,1,0v2.3A.5.5,0,0,1,6.5,17.76Zm19-5.13a.5.5,0,0,1-.5-.5V9.83a.5.5,0,1,1,1,0v2.3A.5.5,0,0,1,25.5,12.63Zm-19-.77a.5.5,0,0,1-.5-.5V9.06a.5.5,0,0,1,1,0v2.3A.5.5,0,0,1,6.5,11.86ZM6.5,6h0A.5.5,0,0,1,6,5.45,2.49,2.49,0,0,1,7.53,3.2a.5.5,0,0,1,.65.26.5.5,0,0,1-.26.66A1.49,1.49,0,0,0,7,5.47.51.51,0,0,1,6.5,6Zm13-2H17.2a.5.5,0,0,1,0-1h2.3a.5.5,0,0,1,0,1ZM13.6,4H11.3a.5.5,0,0,1,0-1h2.3a.5.5,0,1,1,0,1Z"/></svg>