<svg id="Layer_1" data-name="Layer 1" xmlns="http://www.w3.org/2000/svg" viewBox="0 0 36 36"><defs><style>.cls-1{fill:#4f3690;}</style></defs><title>title_checkout</title><path class="cls-1" d="M18,1A17,17,0,1,0,35,18,17,17,0,0,0,18,1ZM14.14,16.5a9.85,9.85,0,0,1,8.41-4.53L20.29,9.71a1,1,0,0,1,1.42-1.42l3.941,3.949c.019.017.042.034.059.051a.534.534,0,0,1,.061.07l.639.64-4.7,4.71a1.014,1.014,0,0,1-1.42,0,1.008,1.008,0,0,1,0-1.42l2.32-2.32a8,8,0,0,0-6.75,3.53A6.652,6.652,0,0,0,15,20.99,1,1,0,0,1,14.01,22H14a1,1,0,0,1-1-.99A8.579,8.579,0,0,1,14.14,16.5ZM27,24a2.006,2.006,0,0,1-2,2H11a2.006,2.006,0,0,1-2-2V22.023a1,1,0,1,1,2-.014V24H25V22.009a1,1,0,1,1,2,.014Z"/></svg>